# xmcd
#
# Track frame offsets: 
#        150
#        6710
#        21698
#        38458
#        52220
#        65713
#        82682
#        97643
#        106143
#
# Disc length: 1618 seconds
#
# Revision: 0
# Processed by: cddbd v1.5.2PL0 Copyright (c) Steve Scherf et al.
# Submitted via: ExactAudioCopy v0.99pb3
#
DISCID=6c065009
DTITLE=Mr. P Chill - One in a Hundred
DYEAR=2008
DGENRE=Hip-Hop
TTITLE0=Intro/Mad as Hell!
TTITLE1=The Sun Used to Shine
TTITLE2=Illusions (ft. Kimberlie Monks)
TTITLE3=Coming Home to You
TTITLE4=Fight the Good Fight
TTITLE5=Just One Chance
TTITLE6=Trouble (remix)
TTITLE7=It Had to Come to This
TTITLE8=Begging (ft. Republican Duck Hunters and Confused Clarity)
EXTD=
EXTT0=
EXTT1=
EXTT2=
EXTT3=
EXTT4=
EXTT5=
EXTT6=
EXTT7=
EXTT8=
PLAYORDER=
